<svg version="1.1" xmlns="http://www.w3.org/2000/svg" style="display: block;" viewBox="0 0 2048 2048" width="1024" height="1024" preserveAspectRatio="none">
<path transform="translate(0,0)" fill="rgb(45,45,45)" d="M 1008.93 364.49 C 1040.47 364.201 1073.17 362.932 1104.55 367.532 C 1112.38 368.68 1120.76 370.777 1128.59 372.304 C 1212.83 388.214 1292.18 423.645 1360.25 475.756 C 1377.32 489.078 1403.63 515.982 1419.35 531.567 C 1432.64 544.747 1455.74 568.674 1466.65 583.588 C 1503.82 634.404 1532.92 692.53 1552.23 752.434 C 1556.51 765.686 1560.37 787.382 1563.64 801.549 C 1566.6 814.347 1569.99 828.711 1572.08 841.467 C 1573.54 847.727 1572.09 860.184 1573.63 865.72 C 1578.72 884.052 1572.55 927.453 1577.79 942.145 C 1581.8 953.403 1603.25 978.158 1610.24 990.042 C 1635.58 1033.17 1652.56 1079.72 1658.42 1129.5 C 1659.56 1139.95 1660 1174.92 1659.61 1185.66 C 1658.37 1220.34 1644.79 1266.07 1630.24 1297.45 C 1620.83 1317.75 1601.36 1344.33 1589.4 1363.2 C 1557.22 1413.97 1528.82 1455.09 1485.83 1497.75 C 1388.92 1593.92 1265.49 1658.41 1130.62 1680.63 C 1104.28 1684.97 1068.39 1689.32 1041.75 1689.09 C 1029.63 1687.11 1014.26 1688.9 1001.89 1689.09 C 979.949 1689.43 954.035 1685.61 932.174 1682.3 C 907.952 1678.64 874.312 1672.58 850.684 1665.62 C 813.564 1654.53 778.734 1639.48 743.692 1623.27 C 721.485 1613 706.058 1604.6 685.453 1591.85 C 652.062 1571.19 621.646 1549.3 592.873 1522.5 C 541.005 1474.6 498.38 1420.6 461.625 1360.41 C 447.484 1337.25 429.075 1314.55 418.495 1288.78 C 411.163 1270.92 398.311 1239.94 395.952 1220.99 C 390.759 1179.28 390.359 1131.15 400.285 1090.2 C 406.598 1066.22 417.794 1040.87 427.288 1017.76 C 433.523 1006.94 445.731 980.248 453.381 971.485 C 480.374 940.564 478.194 932.874 476.204 892.441 C 475.268 873.406 481.349 840.466 484.566 819.726 C 488.684 793.174 497.495 763.717 504.8 737.638 C 530.425 665.873 570.381 593.976 623.329 538.865 C 641.375 520.081 670.471 491.886 690.12 476.514 C 781.71 406.104 893.427 366.848 1008.93 364.49 z"/>
<path transform="translate(0,0)" fill="rgb(45,45,45)" d="M 705.284 762.088 C 706.107 762.041 706.929 761.999 707.752 761.963 C 725.158 761.173 745.617 761.656 763.298 761.666 L 860.524 761.701 L 939.894 761.667 C 952.373 761.668 989.098 759.009 1000.35 766.9 C 1006.41 771.147 1006.42 786.649 1006.13 794.234 C 1004.36 839.989 984.67 875.949 951.502 906.794 C 929.104 924.942 909.811 935.748 881.312 942.094 C 840.007 951.159 796.793 943.327 761.297 920.343 C 719.284 893.221 690.462 847.708 688.179 797.21 C 687.448 781.052 685.493 765.8 705.284 762.088 z"/>
<path transform="translate(0,0)" fill="rgb(45,45,45)" d="M 1062.8 762.115 C 1080.01 761.162 1100.94 761.672 1118.5 761.676 L 1214.06 761.695 L 1293.75 761.697 C 1308.94 761.673 1324.01 761.502 1339.26 761.953 C 1362.94 762.654 1365.35 772.873 1364.07 794.377 C 1361.38 839.706 1342.64 877.278 1308.55 907.221 C 1292.11 922.078 1269.19 933.726 1247.99 939.761 C 1208.08 951.312 1165.2 946.32 1129 925.908 C 1079.93 898.427 1049.27 850.48 1046.62 794.508 C 1045.87 778.688 1044.67 766.917 1062.8 762.115 z"/>
<path transform="translate(0,0)" fill="rgb(45,45,45)" d="M 1045.14 939.423 C 1061.37 938.52 1100.78 940.567 1111.46 957.765 C 1113.49 961.04 1113.51 967.316 1112.09 971.098 C 1105.17 989.401 1084.19 979.069 1070.91 976.186 C 1047.78 970.547 1028.76 975.087 1007.65 985.438 C 994.23 993.901 976.336 1016.74 960.943 1006.51 C 957.22 1004.05 954.738 1000.1 954.13 995.679 C 952.214 981.193 972.897 967.261 983.459 960.298 C 1002.09 948.014 1023.03 941.442 1045.14 939.423 z"/>
</svg>