<svg version="1.1" xmlns="http://www.w3.org/2000/svg" style="display: block;" viewBox="0 0 2048 2048" width="1024" height="1024" preserveAspectRatio="none">
<path transform="translate(0,0)" fill="rgb(0,0,0)" d="M 1008.93 364.49 C 1040.47 364.201 1073.17 362.932 1104.55 367.532 C 1112.38 368.68 1120.76 370.777 1128.59 372.304 C 1212.83 388.214 1292.18 423.645 1360.25 475.756 C 1377.32 489.078 1403.63 515.982 1419.35 531.567 C 1432.64 544.747 1455.74 568.674 1466.65 583.588 C 1503.82 634.404 1532.92 692.53 1552.23 752.434 C 1556.51 765.686 1560.37 787.382 1563.64 801.549 C 1566.6 814.347 1569.99 828.711 1572.08 841.467 C 1573.54 847.727 1572.09 860.184 1573.63 865.72 C 1578.72 884.052 1572.55 927.453 1577.79 942.145 C 1581.8 953.403 1603.25 978.158 1610.24 990.042 C 1635.58 1033.17 1652.56 1079.72 1658.42 1129.5 C 1659.56 1139.95 1660 1174.92 1659.61 1185.66 C 1658.37 1220.34 1644.79 1266.07 1630.24 1297.45 C 1620.83 1317.75 1601.36 1344.33 1589.4 1363.2 C 1557.22 1413.97 1528.82 1455.09 1485.83 1497.75 C 1388.92 1593.92 1265.49 1658.41 1130.62 1680.63 C 1104.28 1684.97 1068.39 1689.32 1041.75 1689.09 C 1029.63 1687.11 1014.26 1688.9 1001.89 1689.09 C 979.949 1689.43 954.035 1685.61 932.174 1682.3 C 907.952 1678.64 874.312 1672.58 850.684 1665.62 C 813.564 1654.53 778.734 1639.48 743.692 1623.27 C 721.485 1613 706.058 1604.6 685.453 1591.85 C 652.062 1571.19 621.646 1549.3 592.873 1522.5 C 541.005 1474.6 498.38 1420.6 461.625 1360.41 C 447.484 1337.25 429.075 1314.55 418.495 1288.78 C 411.163 1270.92 398.311 1239.94 395.952 1220.99 C 390.759 1179.28 390.359 1131.15 400.285 1090.2 C 406.598 1066.22 417.794 1040.87 427.288 1017.76 C 433.523 1006.94 445.731 980.248 453.381 971.485 C 480.374 940.564 478.194 932.874 476.204 892.441 C 475.268 873.406 481.349 840.466 484.566 819.726 C 488.684 793.174 497.495 763.717 504.8 737.638 C 530.425 665.873 570.381 593.976 623.329 538.865 C 641.375 520.081 670.471 491.886 690.12 476.514 C 781.71 406.104 893.427 366.848 1008.93 364.49 z"/>
<path transform="translate(0,0)" fill="#7C3AED" d="M 1015.94 412.422 C 1115.51 406.588 1220.23 438.419 1301.44 494.823 C 1423.17 579.375 1500.43 696.126 1521.91 843.592 C 1524.39 860.621 1526 876.013 1527.23 893.349 C 1528.34 908.896 1525.83 935.022 1530.21 948.912 C 1536.08 963.146 1549.33 976.038 1558.3 988.171 C 1629.35 1084.29 1644.04 1212.76 1572.29 1313.31 C 1525.01 1379.56 1462.22 1419.61 1381.64 1433.54 C 1303.96 1446.98 1226 1435.9 1154.77 1402.45 C 1131.79 1391.66 1115.03 1383.58 1093.95 1368.77 C 1151.02 1315.47 1194.15 1274.92 1271.7 1251.65 C 1289.23 1246.39 1305.69 1244.43 1323.12 1240.31 C 1359.51 1231.71 1395.22 1211.08 1414.88 1178.35 C 1424.31 1161.44 1436.67 1136.08 1433.08 1116.37 C 1431.12 1105.62 1416.1 1098.93 1406.13 1102.72 C 1392.84 1107.76 1392.59 1122.9 1389.06 1134.47 C 1379.83 1164.75 1357.2 1185.38 1327.7 1195.5 C 1321.31 1188.83 1314.39 1176.25 1307.62 1168.39 C 1256.37 1108.94 1153.21 1103.21 1081.96 1122.7 C 1066.6 1126.9 1035.35 1141.11 1023.08 1139.84 C 1012.31 1138.73 983.585 1121.61 970.45 1116.03 C 940.372 1103.42 908.505 1095.6 876.007 1092.86 C 827.337 1088.76 773.195 1096.64 730.985 1122.15 C 717.659 1130.21 707.433 1139.01 695.68 1148.99 C 695.089 1149.42 693.695 1150.08 692.985 1150.45 C 679.36 1144.4 672.093 1116.68 663.93 1104.85 C 653.882 1090.29 628.665 1096.83 628.333 1114.49 C 628.055 1129.32 637.979 1151.07 646.671 1162.82 C 657.983 1178.11 672.139 1184.72 668.838 1207.16 C 666.752 1225.31 671.827 1244.15 684.407 1258.41 C 725.42 1304.92 798.274 1303.28 849.635 1275.84 C 868.144 1266.09 878.798 1254.84 896.145 1245.87 C 907.268 1240.88 919.647 1238.15 931.108 1234.23 C 965.902 1222.06 996.572 1204.88 1029.41 1187.63 C 1101.7 1149.65 1214.72 1132.95 1277.82 1196.76 C 1279.61 1198.57 1280.53 1201.03 1280.27 1203.57 C 1276.08 1208.04 1243.55 1216.35 1233.54 1220.41 C 1213.15 1228.58 1193.42 1238.31 1174.52 1249.51 C 1134.71 1273.3 1105.61 1301.46 1071.55 1332.35 C 930.951 1459.9 673.725 1497.17 523.478 1362.72 C 470.557 1316.12 438.327 1250.39 433.883 1180.01 C 430.14 1111.37 453.013 1044.79 492.995 989.708 C 501.895 977.446 517.545 961.812 522.152 948.659 C 526.525 936.171 524.353 913.991 525.102 900.435 C 525.845 887.005 526.742 873.586 528.186 860.157 C 540.479 752.26 586.669 651.041 660.113 571.05 C 754.264 466.63 877.581 419.464 1015.94 412.422 z"/>
<path transform="translate(0,0)" fill="rgb(0,0,0)" d="M 705.284 762.088 C 706.107 762.041 706.929 761.999 707.752 761.963 C 725.158 761.173 745.617 761.656 763.298 761.666 L 860.524 761.701 L 939.894 761.667 C 952.373 761.668 989.098 759.009 1000.35 766.9 C 1006.41 771.147 1006.42 786.649 1006.13 794.234 C 1004.36 839.989 984.67 875.949 951.502 906.794 C 929.104 924.942 909.811 935.748 881.312 942.094 C 840.007 951.159 796.793 943.327 761.297 920.343 C 719.284 893.221 690.462 847.708 688.179 797.21 C 687.448 781.052 685.493 765.8 705.284 762.088 z"/>
<path transform="translate(0,0)" fill="#7C3AED" d="M 957.514 797.105 C 963.175 796.61 965.925 795.36 969.915 799.526 C 971.482 805.768 966.099 823.189 963.791 829.395 C 952.347 860.662 928.869 886.051 898.59 899.9 C 834.14 929.406 761.81 899.21 732.986 835.503 C 726.759 821.798 725.372 812.733 724.019 797.962 C 739.077 797.969 887.119 797.046 890.382 799.191 C 893.439 814.122 869.061 812.47 860.818 815.371 C 860.364 817.747 860.31 817.737 860.985 819.995 C 867.887 843.08 898.319 853.192 919.769 846.517 C 936.862 842.136 947.846 829.374 951.914 812.496 C 953.013 807.933 955.063 801.208 957.514 797.105 z"/>
<path transform="translate(0,0)" fill="rgb(0,0,0)" d="M 1062.8 762.115 C 1080.01 761.162 1100.94 761.672 1118.5 761.676 L 1214.06 761.695 L 1293.75 761.697 C 1308.94 761.673 1324.01 761.502 1339.26 761.953 C 1362.94 762.654 1365.35 772.873 1364.07 794.377 C 1361.38 839.706 1342.64 877.278 1308.55 907.221 C 1292.11 922.078 1269.19 933.726 1247.99 939.761 C 1208.08 951.312 1165.2 946.32 1129 925.908 C 1079.93 898.427 1049.27 850.48 1046.62 794.508 C 1045.87 778.688 1044.67 766.917 1062.8 762.115 z"/>
<path transform="translate(0,0)" fill="#7C3AED" d="M 1216.91 814.721 C 1229.31 859.509 1295.26 860.38 1308.27 816.688 C 1310.04 810.725 1312.24 803.261 1315.85 798.305 C 1318.01 796.715 1321.07 796.455 1323.63 796.793 C 1333.82 798.135 1325.65 819.72 1324.4 824.247 C 1322.24 830.472 1319.65 836.541 1316.65 842.408 C 1301.16 872.633 1274.31 895.479 1241.99 905.936 C 1176.3 926.654 1103.02 885.989 1085.56 819.941 C 1083.43 811.902 1080.26 804.714 1084.36 797.005 C 1138.49 795.939 1195.23 796.805 1249.53 796.948 C 1244.45 815.347 1233.32 813.408 1216.91 814.721 z"/>
<path transform="translate(0,0)" fill="rgb(0,0,0)" d="M 1045.14 939.423 C 1061.37 938.52 1100.78 940.567 1111.46 957.765 C 1113.49 961.04 1113.51 967.316 1112.09 971.098 C 1105.17 989.401 1084.19 979.069 1070.91 976.186 C 1047.78 970.547 1028.76 975.087 1007.65 985.438 C 994.23 993.901 976.336 1016.74 960.943 1006.51 C 957.22 1004.05 954.738 1000.1 954.13 995.679 C 952.214 981.193 972.897 967.261 983.459 960.298 C 1002.09 948.014 1023.03 941.442 1045.14 939.423 z"/>
<path transform="translate(0,0)" fill="#7C3AED" d="M 1056.99 1396.89 C 1071 1401.12 1085.85 1413.63 1098.79 1420.67 C 1111.49 1427.59 1125.76 1434.75 1138.89 1440.81 C 1212.84 1475.52 1295.23 1488.14 1376.18 1477.15 C 1386.7 1475.64 1396.67 1473.79 1407.04 1471.48 C 1413.69 1469.99 1437.74 1461.67 1441.93 1464.81 C 1441.97 1475.13 1400.83 1507.4 1390.99 1514.93 C 1305.89 1580.31 1204.78 1621.65 1098.25 1634.62 C 1068.43 1638.34 1038.38 1639.8 1008.34 1638.99 C 923.211 1637.14 830.362 1612.65 754.859 1573.34 C 742.821 1565.88 725.75 1559.78 716.337 1548.76 C 701.08 1530.89 715.917 1531.52 723.322 1524.88 L 723.435 1522.8 C 717.825 1516.18 712.007 1508.05 714.842 1498.98 C 715.536 1496.08 719.978 1491.13 722.978 1490.83 C 737.965 1489.35 753.669 1490.11 768.737 1489.67 C 790.56 1488.83 812.34 1487.11 834.024 1484.51 C 893.059 1477.15 957.588 1454.33 1009.33 1425.53 C 1025.63 1416.45 1041.63 1404.92 1056.99 1396.89 z"/>
<path transform="translate(0,0)" fill="#7C3AED" d="M 834.061 1134.6 C 875.937 1129.58 932.017 1142.77 969.94 1162.17 C 972.894 1163.68 974.314 1164.16 975.035 1166.74 C 971.164 1174.86 930.249 1190.43 920.21 1193.23 C 909.656 1196.18 892.314 1197.36 882.345 1202.43 C 863.375 1208.75 822.747 1272.07 802.974 1266.98 C 754.548 1254.52 837.277 1181.84 843.737 1175.98 C 825.672 1178.74 817.599 1183.29 802.973 1193.7 C 789.342 1204.76 780.218 1216.19 772.127 1231.74 C 766.969 1241.66 762.44 1254.86 749.642 1254.83 C 739.674 1254.8 736.76 1243.61 738.413 1235.87 C 745.674 1201.9 775.177 1178.95 801.111 1158.85 C 764.717 1163.65 743.789 1180.81 723.752 1212.38 C 720.865 1216.93 719.367 1225.35 715.168 1228.36 L 712.646 1227.19 C 711.028 1224.8 710.414 1223.3 710.211 1220.35 C 709.096 1204.23 713.043 1193.6 723.355 1181.88 C 751.321 1150.08 793.402 1137.76 834.061 1134.6 z"/>
</svg>